<svg width="40" height="40" viewBox="0 0 40 40" fill="none" xmlns="http://www.w3.org/2000/svg">
<path d="M8 8V32H32V8H8ZM21.0611 26.7174C21.0611 29.0531 19.6897 30.1194 17.6917 30.1194C15.8866 30.1194 14.8417 29.1877 14.306 28.0571L16.1437 26.948C16.4977 27.5746 16.8191 28.1051 17.5957 28.1051C18.3346 28.1051 18.806 27.8154 18.806 26.6857V19.0194H21.0611V26.7174ZM26.396 30.1194C24.3011 30.1194 22.946 29.1234 22.2869 27.8154L24.1246 26.7551C24.6071 27.5429 25.2389 28.1266 26.348 28.1266C27.2797 28.1266 27.8806 27.6603 27.8806 27.0123C27.8806 26.2409 27.2694 25.9674 26.2357 25.5123L25.6734 25.2714C24.0449 24.5806 22.9683 23.7071 22.9683 21.8694C22.9683 20.1766 24.2591 18.8909 26.2683 18.8909C27.704 18.8909 28.7326 19.3889 29.4723 20.696L27.7151 21.8214C27.3294 21.1306 26.9111 20.8571 26.2631 20.8571C25.6049 20.8571 25.1866 21.2754 25.1866 21.8214C25.1866 22.4969 25.6049 22.7694 26.5743 23.1929L27.1366 23.4337C29.0549 24.2531 30.1314 25.0949 30.1314 26.9797C30.1314 29.0051 28.5346 30.1186 26.3969 30.1186L26.396 30.1194Z" fill="white"/>
</svg>
