<svg width="102" height="10" viewBox="0 0 102 10" fill="none" xmlns="http://www.w3.org/2000/svg">
<path d="M0.33672 9.08789C0.121876 9.08789 0.0144539 9.01562 0.0144539 8.87109C0.0144539 8.75781 0.0847664 8.70117 0.225391 8.70117L0.512501 8.73047C0.731251 8.73047 0.879688 8.63672 0.957813 8.44922C1.04375 8.23438 1.08672 7.80469 1.08672 7.16016V3.00586C1.08672 2.36523 1.05547 1.96289 0.99297 1.79883C0.934376 1.63086 0.86797 1.52539 0.793751 1.48242C0.719532 1.43945 0.625782 1.41797 0.512501 1.41797L0.225391 1.44141C0.0847664 1.44141 0.0144539 1.38477 0.0144539 1.27148C0.0144539 1.12695 0.11797 1.05469 0.325001 1.05469C0.535938 1.05469 0.707813 1.06055 0.840626 1.07227C0.977345 1.08008 1.11406 1.08984 1.25078 1.10156C1.61406 1.13281 1.89922 1.14844 2.10625 1.14844C2.31719 1.14844 2.53984 1.14453 2.77422 1.13672C3.00859 1.125 3.27031 1.11328 3.55938 1.10156C4.32109 1.07031 4.84844 1.05469 5.14141 1.05469C5.43828 1.05469 5.60234 1.07227 5.63359 1.10742C5.66875 1.14258 5.68633 1.19141 5.68633 1.25391C5.68633 1.3125 5.68438 1.36914 5.68047 1.42383C5.68047 1.47852 5.67852 1.53906 5.67461 1.60547C5.6707 1.69531 5.65899 1.83008 5.63945 2.00977C5.61992 2.18555 5.59649 2.30469 5.56914 2.36719C5.5418 2.42578 5.50274 2.45508 5.45195 2.45508C5.40117 2.45508 5.36602 2.44336 5.34649 2.41992C5.32695 2.39258 5.29961 2.33398 5.26445 2.24414C5.2332 2.15039 5.17461 2.0625 5.08867 1.98047C5.00664 1.89453 4.87578 1.82422 4.69609 1.76953C4.34453 1.66406 3.69414 1.61133 2.74492 1.61133H2.22344C2.12969 1.61133 2.06914 1.625 2.0418 1.65234C2.01836 1.67969 2.00664 1.74219 2.00664 1.83984V4.30664C2.47149 4.36133 2.85625 4.38867 3.16094 4.38867C3.46953 4.38867 3.68828 4.38672 3.81719 4.38281C3.95 4.37891 4.05938 4.36719 4.14531 4.34766C4.29766 4.32031 4.40703 4.25195 4.47344 4.14258C4.60625 3.93555 4.71367 3.83203 4.7957 3.83203C4.90117 3.83203 4.95391 3.88672 4.95391 3.99609L4.74883 4.82812L4.77227 5.27344C4.77227 5.55469 4.70586 5.69531 4.57305 5.69531C4.45977 5.69531 4.40313 5.62109 4.40313 5.47266C4.40313 5.32031 4.39336 5.20703 4.37383 5.13281C4.3582 5.05859 4.30938 5 4.22734 4.95703C4.10234 4.89453 3.79766 4.86328 3.31328 4.86328C2.82891 4.86328 2.39336 4.88477 2.00664 4.92773V6.31641C2.00664 7.17969 2.02617 7.89258 2.06524 8.45508C2.38164 8.52539 2.72539 8.56055 3.09649 8.56055C3.46758 8.56055 3.78399 8.55078 4.0457 8.53125C4.31133 8.51172 4.53984 8.47266 4.73125 8.41406C5.11016 8.30078 5.38945 8.08398 5.56914 7.76367C5.64727 7.62305 5.72539 7.55273 5.80352 7.55273C5.88164 7.55273 5.9207 7.60938 5.9207 7.72266C5.9207 7.76953 5.90703 7.83008 5.87969 7.9043C5.84844 8.00586 5.80352 8.1582 5.74492 8.36133C5.68633 8.56055 5.64141 8.70508 5.61016 8.79492C5.57891 8.88477 5.54375 8.95312 5.50469 9C5.44609 9.07812 5.33086 9.11719 5.15899 9.11719C4.98711 9.11719 4.82109 9.11523 4.66094 9.11133C4.50078 9.11133 4.33281 9.10938 4.15703 9.10547C3.95391 9.09766 3.63945 9.08203 3.21367 9.05859C2.15117 9.00781 1.52813 8.99023 1.34453 9.00586C1.16094 9.02148 1.02227 9.0332 0.928516 9.04102C0.834766 9.05273 0.74297 9.0625 0.653126 9.07031C0.563282 9.08203 0.457813 9.08789 0.33672 9.08789ZM19.2109 2.8418C19.2109 2.99414 19.1582 3.07031 19.0527 3.07031C18.959 3.07031 18.8809 2.97656 18.8184 2.78906C18.7598 2.59766 18.6465 2.41797 18.4785 2.25C18.3105 2.08203 18.1094 1.94141 17.875 1.82812C17.3867 1.58984 16.8613 1.4707 16.2988 1.4707C15.7402 1.4707 15.2559 1.54688 14.8457 1.69922C14.4395 1.84766 14.0898 2.0625 13.7969 2.34375C13.1875 2.94141 12.8828 3.74805 12.8828 4.76367C12.8828 5.88867 13.2266 6.81641 13.9141 7.54688C14.5977 8.27344 15.4727 8.63672 16.5391 8.63672C17.7266 8.63672 18.6445 8.0918 19.293 7.00195C19.3359 6.93164 19.3809 6.89258 19.4277 6.88477C19.4707 6.88477 19.5137 6.93164 19.5566 7.02539C19.5996 7.11914 19.6211 7.22461 19.6211 7.3418C19.6211 7.53711 19.4551 7.79102 19.123 8.10352C18.791 8.41602 18.3867 8.66797 17.9102 8.85938C17.4375 9.05078 16.8848 9.14648 16.252 9.14648C15.623 9.14648 15.0254 9.04492 14.459 8.8418C13.8965 8.63477 13.418 8.35352 13.0234 7.99805C12.1953 7.25586 11.7812 6.32812 11.7812 5.21484C11.7812 3.95703 12.1992 2.94141 13.0352 2.16797C13.8711 1.39062 14.9707 1.00195 16.334 1.00195C17.3184 1.00195 18.1328 1.13281 18.7773 1.39453C18.9023 1.44922 18.9844 1.50195 19.0234 1.55273C19.1016 1.66211 19.1465 1.82617 19.1582 2.04492C19.1738 2.25977 19.1836 2.4082 19.1875 2.49023C19.2031 2.68164 19.2109 2.79883 19.2109 2.8418ZM32.7297 2.8418C32.7297 2.99414 32.677 3.07031 32.5715 3.07031C32.4777 3.07031 32.3996 2.97656 32.3371 2.78906C32.2785 2.59766 32.1652 2.41797 31.9973 2.25C31.8293 2.08203 31.6281 1.94141 31.3938 1.82812C30.9055 1.58984 30.3801 1.4707 29.8176 1.4707C29.259 1.4707 28.7746 1.54688 28.3645 1.69922C27.9582 1.84766 27.6086 2.0625 27.3156 2.34375C26.7063 2.94141 26.4016 3.74805 26.4016 4.76367C26.4016 5.88867 26.7453 6.81641 27.4328 7.54688C28.1164 8.27344 28.9914 8.63672 30.0578 8.63672C31.2453 8.63672 32.1633 8.0918 32.8117 7.00195C32.8547 6.93164 32.8996 6.89258 32.9465 6.88477C32.9895 6.88477 33.0324 6.93164 33.0754 7.02539C33.1184 7.11914 33.1398 7.22461 33.1398 7.3418C33.1398 7.53711 32.9738 7.79102 32.6418 8.10352C32.3098 8.41602 31.9055 8.66797 31.4289 8.85938C30.9563 9.05078 30.4035 9.14648 29.7707 9.14648C29.1418 9.14648 28.5441 9.04492 27.9777 8.8418C27.4152 8.63477 26.9367 8.35352 26.5422 7.99805C25.7141 7.25586 25.3 6.32812 25.3 5.21484C25.3 3.95703 25.718 2.94141 26.5539 2.16797C27.3898 1.39062 28.4895 1.00195 29.8527 1.00195C30.8371 1.00195 31.6516 1.13281 32.2961 1.39453C32.4211 1.44922 32.5031 1.50195 32.5422 1.55273C32.6203 1.66211 32.6652 1.82617 32.677 2.04492C32.6926 2.25977 32.7023 2.4082 32.7063 2.49023C32.7219 2.68164 32.7297 2.79883 32.7297 2.8418ZM39.0121 9.08789C38.7582 9.08789 38.6313 9.01562 38.6313 8.87109C38.6313 8.75781 38.7016 8.70117 38.8422 8.70117L39.1293 8.73047C39.3402 8.73047 39.4867 8.62891 39.5688 8.42578C39.6586 8.19922 39.7035 7.77148 39.7035 7.14258V3.00586C39.7035 2.36133 39.6684 1.95703 39.598 1.79297C39.5316 1.625 39.4613 1.52148 39.3871 1.48242C39.3168 1.43945 39.2309 1.41797 39.1293 1.41797L38.8422 1.44141C38.7016 1.44141 38.6313 1.38477 38.6313 1.27148C38.6313 1.12695 38.7387 1.05469 38.9535 1.05469C39.1684 1.05469 39.3715 1.07031 39.5629 1.10156C39.7582 1.13281 39.9613 1.14844 40.1723 1.14844C40.3832 1.14844 40.5805 1.13281 40.7641 1.10156C40.9516 1.07031 41.1527 1.05469 41.3676 1.05469C41.5824 1.05469 41.6898 1.12695 41.6898 1.27148C41.6898 1.38477 41.6195 1.44141 41.4789 1.44141L41.1977 1.41797C40.9867 1.41797 40.8402 1.51953 40.7582 1.72266C40.6684 1.94922 40.6234 2.37695 40.6234 3.00586V4.33594H44.766V3.00586C44.766 2.36133 44.7309 1.95703 44.6605 1.79297C44.5941 1.625 44.5238 1.52148 44.4496 1.48242C44.3793 1.43945 44.2934 1.41797 44.1918 1.41797L43.9047 1.44141C43.7641 1.44141 43.6938 1.38477 43.6938 1.27148C43.6938 1.12695 43.8012 1.05469 44.016 1.05469C44.2309 1.05469 44.434 1.07031 44.6254 1.10156C44.8207 1.13281 45.0238 1.14844 45.2348 1.14844C45.4457 1.14844 45.643 1.13281 45.8266 1.10156C46.0141 1.07031 46.2152 1.05469 46.4301 1.05469C46.6449 1.05469 46.7523 1.12695 46.7523 1.27148C46.7523 1.38477 46.682 1.44141 46.5414 1.44141L46.2602 1.41797C46.0492 1.41797 45.9027 1.51953 45.8207 1.72266C45.7309 1.94922 45.6859 2.37695 45.6859 3.00586V7.14258C45.6859 7.7793 45.7191 8.18164 45.7855 8.34961C45.8559 8.51758 45.9262 8.62305 45.9965 8.66602C46.0707 8.70898 46.1586 8.73047 46.2602 8.73047L46.5414 8.70117C46.682 8.70117 46.7523 8.75781 46.7523 8.87109C46.7523 9.01562 46.6273 9.08789 46.3773 9.08789C46.2484 9.08789 46.1117 9.07617 45.9672 9.05273C45.7445 9.01758 45.5043 9 45.2465 9C44.9887 9 44.7602 9.01367 44.5609 9.04102C44.3617 9.07227 44.1996 9.08789 44.0746 9.08789C43.8207 9.08789 43.6938 9.01562 43.6938 8.87109C43.6938 8.75781 43.7641 8.70117 43.9047 8.70117L44.1918 8.73047C44.4027 8.73047 44.5492 8.62891 44.6313 8.42578C44.7211 8.19922 44.766 7.77148 44.766 7.14258V4.89258H40.6234V7.14258C40.6234 7.7793 40.6566 8.18164 40.723 8.34961C40.7934 8.51758 40.8637 8.62305 40.934 8.66602C41.0082 8.70898 41.0961 8.73047 41.1977 8.73047L41.4789 8.70117C41.6195 8.70117 41.6898 8.75781 41.6898 8.87109C41.6898 9.01562 41.5648 9.08789 41.3148 9.08789C41.1859 9.08789 41.0492 9.07617 40.9047 9.05273C40.4359 8.97852 40.0336 8.96484 39.6977 9.01172C39.3656 9.0625 39.1371 9.08789 39.0121 9.08789ZM52.6539 9.08789C52.4391 9.08789 52.3316 9.01562 52.3316 8.87109C52.3316 8.75781 52.402 8.70117 52.5426 8.70117L52.8297 8.73047C53.0484 8.73047 53.1969 8.63672 53.275 8.44922C53.3609 8.23438 53.4039 7.80469 53.4039 7.16016V3.00586C53.4039 2.36523 53.3727 1.96289 53.3102 1.79883C53.2516 1.63086 53.1852 1.52539 53.1109 1.48242C53.0367 1.43945 52.943 1.41797 52.8297 1.41797L52.5426 1.44141C52.402 1.44141 52.3316 1.38477 52.3316 1.27148C52.3316 1.12695 52.4352 1.05469 52.6422 1.05469C52.8531 1.05469 53.025 1.06055 53.1578 1.07227C53.2945 1.08008 53.4313 1.08984 53.568 1.10156C53.9313 1.13281 54.2164 1.14844 54.4234 1.14844C54.6344 1.14844 54.857 1.14453 55.0914 1.13672C55.3258 1.125 55.5875 1.11328 55.8766 1.10156C56.6383 1.07031 57.1656 1.05469 57.4586 1.05469C57.7555 1.05469 57.9195 1.07227 57.9508 1.10742C57.9859 1.14258 58.0035 1.19141 58.0035 1.25391C58.0035 1.3125 58.0016 1.36914 57.9977 1.42383C57.9977 1.47852 57.9957 1.53906 57.9918 1.60547C57.9879 1.69531 57.9762 1.83008 57.9566 2.00977C57.9371 2.18555 57.9137 2.30469 57.8863 2.36719C57.859 2.42578 57.8199 2.45508 57.7691 2.45508C57.7184 2.45508 57.6832 2.44336 57.6637 2.41992C57.6441 2.39258 57.6168 2.33398 57.5816 2.24414C57.5504 2.15039 57.4918 2.0625 57.4059 1.98047C57.3238 1.89453 57.193 1.82422 57.0133 1.76953C56.6617 1.66406 56.0113 1.61133 55.0621 1.61133H54.5406C54.4469 1.61133 54.3863 1.625 54.359 1.65234C54.3355 1.67969 54.3238 1.74219 54.3238 1.83984V4.30664C54.7887 4.36133 55.1734 4.38867 55.4781 4.38867C55.7867 4.38867 56.0055 4.38672 56.1344 4.38281C56.2672 4.37891 56.3766 4.36719 56.4625 4.34766C56.6148 4.32031 56.7242 4.25195 56.7906 4.14258C56.9234 3.93555 57.0309 3.83203 57.1129 3.83203C57.2184 3.83203 57.2711 3.88672 57.2711 3.99609L57.066 4.82812L57.0895 5.27344C57.0895 5.55469 57.023 5.69531 56.8902 5.69531C56.777 5.69531 56.7203 5.62109 56.7203 5.47266C56.7203 5.32031 56.7105 5.20703 56.691 5.13281C56.6754 5.05859 56.6266 5 56.5445 4.95703C56.4195 4.89453 56.1148 4.86328 55.6305 4.86328C55.1461 4.86328 54.7105 4.88477 54.3238 4.92773V6.31641C54.3238 7.17969 54.3434 7.89258 54.3824 8.45508C54.6988 8.52539 55.0426 8.56055 55.4137 8.56055C55.7848 8.56055 56.1012 8.55078 56.3629 8.53125C56.6285 8.51172 56.857 8.47266 57.0484 8.41406C57.4273 8.30078 57.7066 8.08398 57.8863 7.76367C57.9645 7.62305 58.0426 7.55273 58.1207 7.55273C58.1988 7.55273 58.2379 7.60938 58.2379 7.72266C58.2379 7.76953 58.2242 7.83008 58.1969 7.9043C58.1656 8.00586 58.1207 8.1582 58.0621 8.36133C58.0035 8.56055 57.9586 8.70508 57.9273 8.79492C57.8961 8.88477 57.8609 8.95312 57.8219 9C57.7633 9.07812 57.648 9.11719 57.4762 9.11719C57.3043 9.11719 57.1383 9.11523 56.9781 9.11133C56.818 9.11133 56.65 9.10938 56.4742 9.10547C56.2711 9.09766 55.9566 9.08203 55.5309 9.05859C54.4684 9.00781 53.8453 8.99023 53.6617 9.00586C53.4781 9.02148 53.3395 9.0332 53.2457 9.04102C53.152 9.05273 53.0602 9.0625 52.9703 9.07031C52.8805 9.08203 52.775 9.08789 52.6539 9.08789ZM66.6766 1.44141L66.3953 1.41797C66.157 1.41797 65.9949 1.54883 65.909 1.81055C65.8348 2.04102 65.7977 2.43945 65.7977 3.00586V5.90039C65.7977 6.44336 65.8367 6.83398 65.9148 7.07227C65.993 7.30664 66.1023 7.52148 66.243 7.7168C66.3875 7.91211 66.5555 8.07812 66.7469 8.21484C67.1336 8.48828 67.5691 8.625 68.0535 8.625C68.5418 8.625 68.9441 8.56836 69.2605 8.45508C69.577 8.33789 69.8289 8.16406 70.0164 7.93359C70.3641 7.51172 70.5379 6.82422 70.5379 5.87109L70.5262 3.00586C70.5262 2.43164 70.4988 2.05664 70.4441 1.88086C70.3895 1.70117 70.323 1.58008 70.2449 1.51758C70.1707 1.45117 70.073 1.41797 69.952 1.41797L69.6648 1.44141C69.5242 1.44141 69.4539 1.38477 69.4539 1.27148C69.4539 1.12695 69.5613 1.05469 69.7762 1.05469C69.991 1.05469 70.1785 1.07031 70.3387 1.10156C70.4988 1.13281 70.6668 1.14844 70.8426 1.14844L71.8094 1.05469C72.0594 1.05469 72.1844 1.12695 72.1844 1.27148C72.1844 1.38477 72.1141 1.44141 71.9734 1.44141L71.6922 1.41797C71.4539 1.41797 71.2957 1.54883 71.2176 1.81055C71.1512 2.03711 71.118 2.43555 71.118 3.00586L71.1062 6.16992C71.1062 7.04102 70.8289 7.75391 70.2742 8.30859C69.7156 8.86719 68.9715 9.14648 68.0418 9.14648C67.0301 9.14648 66.2312 8.86719 65.6453 8.30859C65.0477 7.73047 64.7488 6.92773 64.7488 5.90039V3.00586C64.7488 2.43945 64.7195 2.06641 64.6609 1.88672C64.6023 1.70313 64.534 1.58008 64.4559 1.51758C64.3777 1.45117 64.2762 1.41797 64.1512 1.41797L63.8641 1.44141C63.7234 1.44141 63.6531 1.38477 63.6531 1.27148C63.6531 1.12695 63.7605 1.05469 63.9754 1.05469C64.1941 1.05469 64.407 1.07031 64.6141 1.10156C64.8211 1.13281 65.0379 1.14844 65.2645 1.14844C65.4949 1.14844 65.7156 1.13281 65.9266 1.10156C66.1414 1.07031 66.3543 1.05469 66.5652 1.05469C66.7801 1.05469 66.8875 1.12695 66.8875 1.27148C66.8875 1.38477 66.8172 1.44141 66.6766 1.44141ZM77.8867 9.08789C77.6406 9.08789 77.5176 9.01953 77.5176 8.88281C77.5176 8.74219 77.5996 8.67188 77.7637 8.67188C78.0098 8.67188 78.1836 8.63477 78.2852 8.56055C78.4844 8.41602 78.6016 8.16797 78.6367 7.81641C78.6445 7.73438 78.6523 7.60938 78.6602 7.44141C78.6719 7.27344 78.6836 7.07812 78.6953 6.85547C78.7109 6.62891 78.7246 6.38086 78.7363 6.11133C78.748 5.83789 78.7598 5.55859 78.7715 5.27344C78.7871 4.98438 78.8008 4.69531 78.8125 4.40625C78.8242 4.11719 78.834 3.8418 78.8418 3.58008C78.8613 2.92773 78.8711 2.51562 78.8711 2.34375C78.8711 2.17188 78.8574 2.03711 78.8301 1.93945C78.8066 1.8418 78.7715 1.76172 78.7246 1.69922C78.6387 1.58984 78.5 1.52148 78.3086 1.49414C77.9727 1.44727 77.8047 1.375 77.8047 1.27734C77.8047 1.21094 77.8281 1.1582 77.875 1.11914C77.9258 1.07617 77.9902 1.05469 78.0684 1.05469L78.9883 1.13672L79.5039 1.11328C79.5977 1.11328 79.6758 1.1543 79.7383 1.23633C79.8008 1.31445 79.8711 1.43164 79.9492 1.58789L82.7852 7.46484C82.8516 7.3125 82.9395 7.11133 83.0488 6.86133C83.1582 6.61133 83.2773 6.33398 83.4062 6.0293C83.5391 5.72461 83.6797 5.40234 83.8281 5.0625C83.9766 4.72266 84.123 4.38477 84.2676 4.04883C84.4121 3.71289 84.5508 3.39062 84.6836 3.08203C84.8164 2.77344 84.9336 2.5 85.0352 2.26172C85.1367 2.01953 85.2207 1.82227 85.2871 1.66992C85.3535 1.51758 85.3984 1.41016 85.4219 1.34766C85.4492 1.28125 85.5 1.2207 85.5742 1.16602C85.6484 1.11133 85.7363 1.08398 85.8379 1.08398L86.3887 1.10742L87.0918 1.05469C87.3848 1.05469 87.5312 1.12695 87.5312 1.27148C87.5312 1.3418 87.4668 1.39062 87.3379 1.41797C87.209 1.44141 87.0996 1.46289 87.0098 1.48242C86.9199 1.50195 86.8359 1.53125 86.7578 1.57031C86.5781 1.66797 86.4883 1.83008 86.4883 2.05664L86.7871 7.79297C86.8184 8.29688 87.0078 8.58203 87.3555 8.64844C87.4531 8.66406 87.5488 8.67188 87.6426 8.67188C87.8105 8.67188 87.8945 8.74219 87.8945 8.88281C87.8945 9.01953 87.7715 9.08789 87.5254 9.08789C87.4277 9.08789 87.3438 9.08203 87.2734 9.07031C87.2031 9.0625 87.1328 9.05469 87.0625 9.04688C86.8516 9.01562 86.6602 9 86.4883 9L85.2402 9.08789C84.9863 9.08789 84.8594 9.01562 84.8594 8.87109C84.8594 8.75 84.9512 8.68945 85.1348 8.68945C85.3184 8.68945 85.4512 8.67578 85.5332 8.64844C85.6191 8.61719 85.6816 8.57031 85.7207 8.50781C85.7754 8.41406 85.8027 8.19336 85.8027 7.8457V7.29492C85.8027 7.0293 85.7832 6.49023 85.7441 5.67773C85.7051 4.86523 85.6777 4.28516 85.6621 3.9375C85.6309 3.20312 85.6016 2.64648 85.5742 2.26758L82.8027 8.61914C82.7012 8.84961 82.6094 8.96484 82.5273 8.96484C82.4727 8.96484 82.4258 8.9375 82.3867 8.88281C82.3516 8.82422 82.3027 8.73242 82.2402 8.60742L79.4043 2.76562C79.2559 4.75391 79.1816 6.57227 79.1816 8.2207C79.1816 8.54102 79.4414 8.70117 79.9609 8.70117C80.1016 8.70117 80.1719 8.75781 80.1719 8.87109C80.1719 9.01562 80.0449 9.08789 79.791 9.08789L78.8418 9C78.6426 9 78.4551 9.01367 78.2793 9.04102C78.1035 9.07227 77.9727 9.08789 77.8867 9.08789ZM85.75 1.86328L85.7559 1.85742L85.75 1.86328ZM94.3879 9C94.1887 9 94.0012 9.01367 93.8254 9.04102C93.6535 9.07227 93.466 9.08789 93.2629 9.08789C93.0637 9.08789 92.9641 9.02344 92.9641 8.89453C92.9641 8.76172 93.0559 8.69531 93.2395 8.69531C93.4309 8.69531 93.5676 8.66016 93.6496 8.58984C93.7824 8.46875 93.9133 8.27148 94.0422 7.99805C94.1711 7.72461 94.2902 7.46875 94.3996 7.23047C94.5129 6.99219 94.6418 6.71484 94.7863 6.39844C94.9309 6.07812 95.0891 5.72266 95.2609 5.33203C95.4367 4.9375 95.6203 4.51953 95.8117 4.07812C96.3117 2.91797 96.6418 2.13867 96.802 1.74023C96.9621 1.33789 97.05 1.11523 97.0656 1.07227C97.0852 1.0293 97.1047 0.990234 97.1242 0.955078C97.175 0.873047 97.218 0.832031 97.2531 0.832031C97.2883 0.832031 97.3176 0.837891 97.341 0.849609C97.3645 0.857422 97.3898 0.875 97.4172 0.902344C97.4758 0.976563 97.5344 1.08789 97.593 1.23633C97.6516 1.38086 97.7297 1.57812 97.8273 1.82812C97.9289 2.07812 98.0441 2.36133 98.173 2.67773C98.302 2.99414 98.4387 3.33398 98.5832 3.69727C98.7277 4.06055 98.8723 4.42383 99.0168 4.78711C99.1652 5.14648 99.3078 5.49609 99.4445 5.83594C99.5852 6.17578 99.7102 6.48242 99.8195 6.75586C100.155 7.57227 100.37 8.06055 100.464 8.2207C100.558 8.38086 100.636 8.49219 100.698 8.55469C100.796 8.64844 100.941 8.69531 101.132 8.69531C101.323 8.69531 101.419 8.76172 101.419 8.89453C101.419 9.02344 101.296 9.08789 101.05 9.08789C100.945 9.08789 100.853 9.08203 100.775 9.07031C100.7 9.0625 100.624 9.05469 100.546 9.04688C100.32 9.01562 100.118 9 99.9426 9L98.8117 9.08789C98.5578 9.08789 98.4309 9.01562 98.4309 8.87109C98.4309 8.75391 98.5012 8.69531 98.6418 8.69531L98.9934 8.73633C99.1418 8.73633 99.2395 8.70508 99.2863 8.64258C99.3332 8.57617 99.3566 8.49414 99.3566 8.39648C99.3566 8.21289 99.2785 7.92773 99.1223 7.54102L98.6359 6.32227H95.384C95.2902 6.55664 95.2023 6.77148 95.1203 6.9668C95.0422 7.16211 94.9699 7.35156 94.9035 7.53516C94.798 7.83203 94.7453 8.06641 94.7453 8.23828C94.7453 8.40625 94.7746 8.53125 94.8332 8.61328C94.8957 8.69141 95.0109 8.73047 95.1789 8.73047L95.5305 8.70117C95.6711 8.70117 95.7414 8.75781 95.7414 8.87109C95.7414 9.01562 95.6145 9.08789 95.3605 9.08789L94.3879 9ZM98.4367 5.82422L97.0422 2.33203C96.7727 3.01562 96.2902 4.17969 95.5949 5.82422H98.4367Z" fill="white"/>
</svg>
