<svg width="40" height="40" viewBox="0 0 40 40" fill="none" xmlns="http://www.w3.org/2000/svg">
<path d="M16.9596 12.2938L13.2525 15.9999H9C8.4475 15.9999 8 16.4474 8 16.9999V22.9996C8 23.5516 8.4475 23.9995 9 23.9995H13.2525L16.9596 27.7056C17.5858 28.3318 18.6667 27.8919 18.6667 26.9986V13.0009C18.6667 12.1068 17.585 11.6684 16.9596 12.2938ZM26.6813 10.1656C26.2158 9.8602 25.5904 9.98894 25.285 10.4552C24.9792 10.9206 25.1092 11.546 25.5746 11.8514C28.3358 13.6634 29.9837 16.7095 29.9837 20.0001C29.9837 23.2908 28.3358 26.3369 25.5746 28.1489C25.1092 28.4539 24.9792 29.0797 25.285 29.5447C25.5783 29.9909 26.1988 30.1513 26.6813 29.8343C30.0113 27.6485 32 23.9716 32 19.9997C32 16.0278 30.0113 12.3513 26.6813 10.1656ZM28 19.9997C28 17.3528 26.6642 14.9191 24.4263 13.49C23.96 13.1925 23.3417 13.3309 23.0462 13.8008C22.7508 14.2708 22.8888 14.8929 23.355 15.1908C25.0112 16.2486 26 18.0461 26 19.9997C26 21.9534 25.0112 23.7508 23.355 24.8087C22.8888 25.1062 22.7508 25.7282 23.0462 26.1986C23.3175 26.6302 23.9263 26.8294 24.4263 26.5094C26.6642 25.0803 28 22.6471 28 19.9997ZM22.0929 16.797C21.6104 16.5332 21.0017 16.707 20.7342 17.1907C20.4679 17.6744 20.6442 18.2823 21.1279 18.5494C21.6658 18.8448 22 19.401 22 19.9997C22 20.5989 21.6658 21.1547 21.1283 21.4501C20.6446 21.7171 20.4683 22.325 20.7346 22.8088C21.0025 23.2946 21.6117 23.4671 22.0933 23.2025C23.2696 22.5546 24.0004 21.3276 24.0004 19.9993C24.0004 18.671 23.2696 17.4444 22.0929 16.797Z" fill="white"/>
</svg>
