<svg width="100" height="100" viewBox="0 0 100 100" fill="none" xmlns="http://www.w3.org/2000/svg">
<g clip-path="url(#clip0)">
<path d="M0 0H100V100H0V0Z"/>
<path d="M50.066 -56L56.3052 -49.7608L-49.7608 56.3052L-56 50.066L50.066 -56Z" fill="black"/>
<path d="M62.5444 -43.5216L68.7835 -37.2825L-37.2825 68.7835L-43.5216 62.5444L62.5444 -43.5216Z" fill="black"/>
<path d="M112.458 6.39177L118.697 12.631L12.631 118.697L6.39178 112.458L112.458 6.39177Z" fill="black"/>
<path d="M75.0227 -31.0433L81.2619 -24.8041L-24.8041 81.2619L-31.0433 75.0227L75.0227 -31.0433Z" fill="black"/>
<path d="M124.936 18.8701L131.175 25.1093L25.1093 131.175L18.8701 124.936L124.936 18.8701Z" fill="black"/>
<path d="M87.5011 -18.5649L93.7403 -12.3258L-12.3258 93.7403L-18.5649 87.5011L87.5011 -18.5649Z" fill="black"/>
<path d="M137.415 31.3485L143.654 37.5877L37.5877 143.654L31.3485 137.414L137.415 31.3485Z" fill="black"/>
<path d="M99.9794 -6.08658L106.219 0.152597L0.152599 106.219L-6.08658 99.9794L99.9794 -6.08658Z" fill="black"/>
<path d="M149.893 43.8268L156.132 50.066L50.066 156.132L43.8268 149.893L149.893 43.8268Z" fill="black"/>
</g>
<defs>
<clipPath id="clip0">
<path d="M0 0H100V100H0V0Z" fill="white"/>
</clipPath>
</defs>
</svg>
