<svg width="40" height="40" viewBox="0 0 40 40" fill="none" xmlns="http://www.w3.org/2000/svg">
<path d="M22.4667 23.4286C26.9 23.4286 30 20.2433 30 15.6645C30 11.0857 26.9 8 22.4667 8H13.9583C13.6132 8 13.3333 8.28784 13.3333 8.64286V19.7124H10.625C10.2798 19.7124 10 20.0003 10 20.3553V22.7857C10 23.1407 10.2798 23.4286 10.625 23.4286H13.3333V25.1429H10.625C10.2798 25.1429 10 25.4307 10 25.7857V27.9286C10 28.2836 10.2798 28.5714 10.625 28.5714H13.3333V31.3571C13.3333 31.7122 13.6132 32 13.9583 32H17.0083C17.3535 32 17.6333 31.7122 17.6333 31.3571V28.5714H26.0417C26.3868 28.5714 26.6667 28.2836 26.6667 27.9286V25.7857C26.6667 25.4307 26.3868 25.1429 26.0417 25.1429H17.6333V23.4286H22.4667ZM17.6333 11.6829H21.7333C24.1667 11.6829 25.6333 13.2424 25.6333 15.6645C25.6333 18.1198 24.1667 19.7124 21.6667 19.7124H17.6333V11.6829Z" fill="white"/>
</svg>
