<svg width="40" height="40" viewBox="0 0 40 40" fill="none" xmlns="http://www.w3.org/2000/svg">
<path d="M31.7636 17.7497C31.9167 18.553 32 19.3929 32 20.2694C32 27.1252 27.3177 32 20.2457 32C18.6374 32.0005 17.0448 31.6904 15.5589 31.0875C14.0729 30.4846 12.7228 29.6007 11.5856 28.4864C10.4484 27.372 9.54638 26.0489 8.93115 24.5928C8.31592 23.1366 7.99951 21.576 8 20C7.99951 18.424 8.31592 16.8634 8.93115 15.4072C9.54638 13.9511 10.4484 12.628 11.5856 11.5136C12.7228 10.3992 14.0729 9.51535 15.5589 8.91247C17.0448 8.30958 18.6374 7.99952 20.2457 8C23.5522 8 26.315 9.1922 28.4348 11.128L24.9827 14.5108V14.5022C23.6977 13.3027 22.0669 12.6871 20.2457 12.6871C16.2053 12.6871 12.9212 16.0321 12.9212 19.9927C12.9212 23.9521 16.2053 27.3043 20.2457 27.3043C23.9117 27.3043 26.4071 25.2503 26.9196 22.4295H20.2457V17.7497H31.7649H31.7636Z" fill="white"/>
</svg>
