<svg width="40" height="40" viewBox="0 0 40 40" fill="none" xmlns="http://www.w3.org/2000/svg">
<path fill-rule="evenodd" clip-rule="evenodd" d="M11.6 30C10.6452 30 9.72955 29.6049 9.05442 28.9017C8.37928 28.1984 8 27.2446 8 26.25V13.75C8 12.7554 8.37928 11.8016 9.05442 11.0983C9.72955 10.3951 10.6452 10 11.6 10H28.4C29.3548 10 30.2705 10.3951 30.9456 11.0983C31.6207 11.8016 32 12.7554 32 13.75V26.25C32 27.2446 31.6207 28.1984 30.9456 28.9017C30.2705 29.6049 29.3548 30 28.4 30H11.6ZM14.75 15.275C14.6278 15.1663 14.4858 15.0842 14.3325 15.0338C14.1793 14.9833 14.0178 14.9654 13.8578 14.9811C13.6978 14.9969 13.5424 15.046 13.401 15.1255C13.2595 15.205 13.1348 15.3133 13.0343 15.444C12.9338 15.5746 12.8595 15.725 12.8159 15.8861C12.7722 16.0473 12.7601 16.2159 12.7802 16.382C12.8003 16.5482 12.8523 16.7084 12.933 16.8532C13.0137 16.998 13.1215 17.1244 13.25 17.225L17.75 20.9762C18.3885 21.5088 19.1821 21.7989 20 21.7989C20.8179 21.7989 21.6115 21.5088 22.25 20.9762L26.75 17.2263C26.8731 17.1237 26.9755 16.9968 27.0516 16.853C27.1276 16.7091 27.1756 16.5511 27.193 16.3879C27.2104 16.2247 27.1968 16.0595 27.1529 15.9018C27.109 15.7441 27.0357 15.597 26.9372 15.4688C26.8387 15.3405 26.7169 15.2338 26.5788 15.1546C26.4408 15.0754 26.289 15.0254 26.1324 15.0073C25.9757 14.9892 25.8171 15.0034 25.6657 15.0491C25.5143 15.0948 25.3731 15.1712 25.25 15.2737L20.75 19.0238C20.5372 19.2013 20.2726 19.298 20 19.298C19.7274 19.298 19.4628 19.2013 19.25 19.0238L14.75 15.2737V15.275Z" fill="white"/>
</svg>
