<svg width="40" height="40" viewBox="0 0 40 40" fill="none" xmlns="http://www.w3.org/2000/svg">
<path d="M27.5324 15.8824C27.9488 16.5835 28.7144 17.0588 29.6 17.0588C30.2365 17.0588 30.847 16.8109 31.2971 16.3697C31.7471 15.9284 32 15.3299 32 14.7059C32 14.0818 31.7471 13.4834 31.2971 13.0421C30.847 12.6008 30.2365 12.3529 29.6 12.3529C28.7144 12.3529 27.9488 12.8282 27.5324 13.5294H24.8V11.1765C24.8 10.8645 24.6736 10.5652 24.4485 10.3446C24.2235 10.1239 23.9183 10 23.6 10H16.4C16.0817 10 15.7765 10.1239 15.5515 10.3446C15.3264 10.5652 15.2 10.8645 15.2 11.1765V13.5294H12.4676C12.0512 12.8282 11.2856 12.3529 10.4 12.3529C9.76348 12.3529 9.15303 12.6008 8.70294 13.0421C8.25286 13.4834 8 14.0818 8 14.7059C8 15.3299 8.25286 15.9284 8.70294 16.3697C9.15303 16.8109 9.76348 17.0588 10.4 17.0588C11.2856 17.0588 12.0512 16.5835 12.4676 15.8824H15.2V16.3165C11.7596 18.0471 10.7816 21.2165 10.5092 22.9412H9.2C8.88174 22.9412 8.57652 23.0651 8.35147 23.2858C8.12643 23.5064 8 23.8056 8 24.1176V28.8235C8 29.1355 8.12643 29.4348 8.35147 29.6554C8.57652 29.8761 8.88174 30 9.2 30H14C14.3183 30 14.6235 29.8761 14.8485 29.6554C15.0736 29.4348 15.2 29.1355 15.2 28.8235V24.1176C15.2 23.8056 15.0736 23.5064 14.8485 23.2858C14.6235 23.0651 14.3183 22.9412 14 22.9412H12.9476C13.184 21.8129 13.8092 20.1106 15.4496 18.92C15.557 19.0698 15.6992 19.1925 15.8644 19.278C16.0296 19.3635 16.2132 19.4093 16.4 19.4118H23.6C23.787 19.4096 23.9707 19.3637 24.136 19.278C24.3013 19.1923 24.4434 19.0692 24.5504 18.9188C26.198 20.1106 26.8244 21.8106 27.0572 22.9412H26C25.6817 22.9412 25.3765 23.0651 25.1515 23.2858C24.9264 23.5064 24.8 23.8056 24.8 24.1176V28.8235C24.8 29.1355 24.9264 29.4348 25.1515 29.6554C25.3765 29.8761 25.6817 30 26 30H30.8C31.1183 30 31.4235 29.8761 31.6485 29.6554C31.8736 29.4348 32 29.1355 32 28.8235V24.1176C32 23.8056 31.8736 23.5064 31.6485 23.2858C31.4235 23.0651 31.1183 22.9412 30.8 22.9412H29.4896C29.2172 21.2165 28.2392 18.0459 24.8 16.3153V15.8824H27.5324ZM12.8 27.6471H10.4V25.2941H12.8V27.6471ZM29.6 27.6471H27.2V25.2941H29.6V27.6471ZM22.4 17.0588H17.6V12.3529H22.4V17.0588Z" fill="white"/>
</svg>
