<svg width="40" height="40" viewBox="0 0 40 40" fill="none" xmlns="http://www.w3.org/2000/svg">
<path fill-rule="evenodd" clip-rule="evenodd" d="M17.7511 7.13479C18.4289 6.72078 19.2059 6.5 20.0008 6.5C20.7956 6.5 21.5726 6.72078 22.2504 7.13479C22.9232 7.5457 23.4716 8.13045 23.845 8.82373L34.0981 27.1508C34.1318 27.211 34.1613 27.2734 34.1863 27.3376C34.4497 28.012 34.5491 28.7407 34.4774 29.4611C34.4058 30.1816 34.1649 30.8765 33.772 31.4848C33.3789 32.0934 32.8445 32.5986 32.2114 32.9519C31.5779 33.3054 30.867 33.4947 30.1412 33.5L30.1303 33.5V33.5H9.90017C9.87379 33.5 9.84757 33.4993 9.82152 33.498C9.7687 33.5007 9.71521 33.5007 9.66121 33.4979C8.95264 33.46 8.26609 33.2472 7.65908 32.8806C7.05237 32.5141 6.54439 32.0059 6.17369 31.4024C5.80312 30.7992 5.57927 30.1164 5.51753 29.4112C5.45579 28.706 5.55756 27.9947 5.81595 27.3356C5.84086 27.2721 5.87007 27.2104 5.90339 27.1508L16.1565 8.82369C16.5299 8.13043 17.0784 7.54569 17.7511 7.13479ZM9.82033 30.5021C9.84676 30.5007 9.87338 30.5 9.90017 30.5H30.1238C30.3395 30.4977 30.5541 30.4412 30.7495 30.3322C30.9467 30.2221 31.1205 30.0606 31.2519 29.8572C31.3834 29.6535 31.4672 29.4157 31.4921 29.1644C31.5142 28.9421 31.4894 28.7186 31.421 28.51L21.2205 10.2769L21.2064 10.2512C21.0801 10.0147 20.8987 9.82452 20.6866 9.69499C20.475 9.56574 20.2384 9.5 20.0008 9.5C19.7631 9.5 19.5265 9.56574 19.3149 9.69499C19.1028 9.82452 18.9214 10.0147 18.7951 10.2512L18.7811 10.2769L8.57995 28.5111C8.51276 28.7146 8.48708 28.9323 8.5061 29.1495C8.52764 29.3956 8.60552 29.6297 8.72995 29.8323C8.85425 30.0346 9.02016 30.1979 9.20999 30.3125C9.39925 30.4268 9.60843 30.4906 9.82033 30.5021ZM20.0152 15.5297C20.8436 15.5297 21.5152 16.2013 21.5152 17.0297V20.0238C21.5152 20.8522 20.8436 21.5238 20.0152 21.5238C19.1868 21.5238 18.5152 20.8522 18.5152 20.0238V17.0297C18.5152 16.2013 19.1868 15.5297 20.0152 15.5297ZM20.0152 24.5119C20.8436 24.5119 21.5152 25.1835 21.5152 26.0119V26.0268C21.5152 26.8553 20.8436 27.5268 20.0152 27.5268C19.1868 27.5268 18.5152 26.8553 18.5152 26.0268V26.0119C18.5152 25.1835 19.1868 24.5119 20.0152 24.5119Z" fill="white"/>
</svg>
