<svg width="40" height="40" viewBox="0 0 40 40" fill="none" xmlns="http://www.w3.org/2000/svg">
<path fill-rule="evenodd" clip-rule="evenodd" d="M17.7511 6.13479C18.4289 5.72078 19.2059 5.5 20.0008 5.5C20.7956 5.5 21.5726 5.72078 22.2504 6.13479C22.9232 6.5457 23.4716 7.13045 23.845 7.82373L34.0981 26.1508C34.1318 26.211 34.1613 26.2734 34.1863 26.3376C34.4497 27.012 34.5491 27.7407 34.4774 28.4611C34.4058 29.1816 34.1649 29.8765 33.772 30.4848C33.3789 31.0934 32.8445 31.5986 32.2114 31.9519C31.5779 32.3054 30.867 32.4947 30.1412 32.5L30.1303 32.5V32.5H9.90017C9.87379 32.5 9.84757 32.4993 9.82152 32.498C9.7687 32.5007 9.71521 32.5007 9.66121 32.4979C8.95264 32.46 8.26609 32.2472 7.65908 31.8806C7.05237 31.5141 6.54439 31.0059 6.17369 30.4024C5.80312 29.7992 5.57927 29.1164 5.51753 28.4112C5.45579 27.706 5.55756 26.9947 5.81595 26.3356C5.84086 26.2721 5.87007 26.2104 5.90339 26.1508L16.1565 7.82369C16.5299 7.13043 17.0784 6.54569 17.7511 6.13479ZM9.82033 29.5021C9.84676 29.5007 9.87338 29.5 9.90017 29.5H30.1238C30.3395 29.4977 30.5541 29.4412 30.7495 29.3322C30.9467 29.2221 31.1205 29.0606 31.2519 28.8572C31.3834 28.6535 31.4672 28.4157 31.4921 28.1644C31.5142 27.9421 31.4894 27.7186 31.421 27.51L21.2205 9.27692L21.2064 9.25119C21.0801 9.01474 20.8987 8.82452 20.6866 8.69499C20.475 8.56574 20.2384 8.5 20.0008 8.5C19.7631 8.5 19.5265 8.56574 19.3149 8.69499C19.1028 8.82452 18.9214 9.01474 18.7951 9.25119L18.7811 9.27692L8.57995 27.5111C8.51276 27.7146 8.48708 27.9323 8.5061 28.1495C8.52764 28.3956 8.60552 28.6297 8.72995 28.8323C8.85425 29.0346 9.02016 29.1979 9.20999 29.3125C9.39925 29.4268 9.60843 29.4906 9.82033 29.5021ZM20.0152 14.5297C20.8436 14.5297 21.5152 15.2013 21.5152 16.0297V19.0238C21.5152 19.8522 20.8436 20.5238 20.0152 20.5238C19.1868 20.5238 18.5152 19.8522 18.5152 19.0238V16.0297C18.5152 15.2013 19.1868 14.5297 20.0152 14.5297ZM20.0152 23.5119C20.8436 23.5119 21.5152 24.1835 21.5152 25.0119V25.0268C21.5152 25.8553 20.8436 26.5268 20.0152 26.5268C19.1868 26.5268 18.5152 25.8553 18.5152 25.0268V25.0119C18.5152 24.1835 19.1868 23.5119 20.0152 23.5119Z" fill="white"/>
</svg>
