<svg width="40" height="40" viewBox="0 0 40 40" fill="none" xmlns="http://www.w3.org/2000/svg">
<path fill-rule="evenodd" clip-rule="evenodd" d="M11.84 28.7984C10.6273 27.6763 9.66002 26.3153 8.99914 24.8011C8.33826 23.2869 7.99808 21.6522 8.00001 20C8.00001 13.3724 13.3724 8 20 8C26.6276 8 32 13.3724 32 20C32.0019 21.6522 31.6617 23.2869 31.0009 24.8011C30.34 26.3153 29.3727 27.6763 28.16 28.7984C27.8752 27.6419 27.3482 26.559 26.6139 25.6213C25.8795 24.6836 24.9545 23.9125 23.9 23.3588C24.8317 22.5614 25.4968 21.4977 25.8055 20.3109C26.1143 19.124 26.0519 17.8711 25.6269 16.7207C25.2019 15.5704 24.4346 14.5779 23.4283 13.877C22.422 13.176 21.2251 12.8002 19.9988 12.8002C18.7725 12.8002 17.5756 13.176 16.5693 13.877C15.563 14.5779 14.7957 15.5704 14.3707 16.7207C13.9457 17.8711 13.8833 19.124 14.1921 20.3109C14.5008 21.4977 15.1659 22.5614 16.0976 23.3588C15.0435 23.9127 14.119 24.684 13.3851 25.6217C12.6511 26.5594 12.1245 27.6421 11.84 28.7984ZM14.012 30.4016C15.8326 31.4519 17.8981 32.0033 20 32C22.1804 32 24.224 31.418 25.988 30.4016C25.8916 28.879 25.2187 27.4503 24.1064 26.4062C22.994 25.3621 21.5256 24.7809 20 24.7809C18.4744 24.7809 17.006 25.3621 15.8936 26.4062C14.7813 27.4503 14.1084 28.879 14.012 30.4016ZM20 15.2C19.5272 15.2 19.0591 15.2931 18.6223 15.474C18.1856 15.6549 17.7887 15.9201 17.4544 16.2544C17.1201 16.5887 16.855 16.9856 16.674 17.4223C16.4931 17.8591 16.4 18.3272 16.4 18.8C16.4 19.2728 16.4931 19.7409 16.674 20.1777C16.855 20.6144 17.1201 21.0113 17.4544 21.3456C17.7887 21.6799 18.1856 21.945 18.6223 22.126C19.0591 22.3069 19.5272 22.4 20 22.4C20.9548 22.4 21.8705 22.0207 22.5456 21.3456C23.2207 20.6704 23.6 19.7548 23.6 18.8C23.6 17.8452 23.2207 16.9295 22.5456 16.2544C21.8705 15.5793 20.9548 15.2 20 15.2Z" fill="white"/>
</svg>
