<svg width="40" height="40" viewBox="0 0 40 40" fill="none" xmlns="http://www.w3.org/2000/svg">
<path d="M23.31 16.6902C26.1106 19.4938 26.0722 23.9886 23.3268 26.7491C23.3217 26.7548 23.3156 26.7609 23.31 26.7665L20.16 29.9165C17.3817 32.6948 12.8616 32.6944 10.0837 29.9165C7.30543 27.1387 7.30543 22.618 10.0837 19.8402L11.8231 18.1009C12.2843 17.6396 13.0786 17.9462 13.1025 18.598C13.1328 19.4288 13.2818 20.2634 13.5567 21.0693C13.6498 21.3422 13.5833 21.6441 13.3794 21.848L12.7659 22.4615C11.4522 23.7752 11.411 25.9143 12.7118 27.2409C14.0254 28.5805 16.1845 28.5885 17.5082 27.2648L20.6582 24.1152C21.9797 22.7938 21.9742 20.6579 20.6582 19.3419C20.4848 19.1688 20.31 19.0343 20.1735 18.9403C20.0769 18.874 19.9972 18.786 19.9407 18.6834C19.8841 18.5808 19.8524 18.4664 19.8479 18.3494C19.8293 17.854 20.0048 17.3436 20.3962 16.9522L21.3831 15.9653C21.6419 15.7065 22.0479 15.6747 22.348 15.8841C22.6917 16.1241 23.0136 16.3938 23.31 16.6902V16.6902ZM29.9163 10.0836C27.1384 7.30566 22.6183 7.30529 19.84 10.0836L16.69 13.2336C16.6844 13.2392 16.6783 13.2453 16.6732 13.2509C13.9279 16.0115 13.8894 20.5063 16.69 23.3098C16.9864 23.6062 17.3083 23.8759 17.652 24.1159C17.9521 24.3253 18.3581 24.2935 18.6168 24.0347L19.6037 23.0478C19.9951 22.6564 20.1706 22.146 20.1521 21.6506C20.1476 21.5336 20.1158 21.4192 20.0593 21.3166C20.0027 21.214 19.923 21.126 19.8264 21.0597C19.6899 20.9657 19.5152 20.8312 19.3417 20.6581C18.0258 19.3421 18.0203 17.2062 19.3417 15.8848L22.4917 12.7352C23.8154 11.4115 25.9745 11.4195 27.2882 12.7591C28.589 14.0857 28.5478 16.2248 27.2341 17.5385L26.6206 18.152C26.4167 18.3559 26.3502 18.6578 26.4433 18.9307C26.7181 19.7366 26.8671 20.5712 26.8975 21.402C26.9214 22.0538 27.7156 22.3604 28.1769 21.8991L29.9162 20.1598C32.6946 17.382 32.6946 12.8614 29.9163 10.0836V10.0836Z" fill="white"/>
</svg>
