<svg width="40" height="40" viewBox="0 0 40 40" fill="none" xmlns="http://www.w3.org/2000/svg">
<path d="M9.8 10C8.80738 10 8 10.841 8 11.875V14.375C8 14.7203 8.2685 15 8.6 15H11.6V11.875C11.6 10.841 10.7926 10 9.8 10ZM17.6 26.116V23.75H28.4V13.75C28.4 11.682 26.7853 10 24.8 10H12.1846C12.5652 10.5238 12.8 11.1688 12.8 11.875V26.25C12.8 27.7684 14.0994 28.9707 15.6031 28.7156C16.7832 28.5156 17.6 27.3617 17.6 26.116ZM18.8 25V26.25C18.8 28.3176 17.1853 30 15.2 30H27.8C30.1198 30 32 28.0414 32 25.625C32 25.2797 31.7315 25 31.4 25H18.8Z" fill="white"/>
</svg>
