<svg width="40" height="40" viewBox="0 0 40 40" fill="none" xmlns="http://www.w3.org/2000/svg">
<path d="M23.9515 29C23.2153 29.0008 22.5013 28.7572 21.9296 28.3101L13.9973 21.9957C13.6862 21.7569 13.435 21.4535 13.2623 21.1081C13.0897 20.7628 13 20.3843 13 20.0009C13 19.6175 13.0897 19.239 13.2623 18.8936C13.435 18.5482 13.6862 18.2449 13.9973 18.0061L21.9296 11.6917C22.4071 11.3227 22.9825 11.0905 23.5903 11.0216C24.198 10.9526 24.8136 11.0497 25.3669 11.3017C25.8478 11.5061 26.2575 11.8397 26.547 12.2626C26.8366 12.6854 26.9939 13.1798 27 13.6865V26.3153C26.9939 26.822 26.8366 27.3163 26.547 27.7392C26.2575 28.1621 25.8478 28.4956 25.3669 28.7C24.9223 28.895 24.4399 28.9972 23.9515 29ZM16.3925 20.0009L23.8893 26.0003V14.1364L16.3925 20.0009Z" fill="white"/>
</svg>
