<svg width="40" height="40" viewBox="0 0 40 40" fill="none" xmlns="http://www.w3.org/2000/svg">
<path fill-rule="evenodd" clip-rule="evenodd" d="M14 8C12.4087 8 10.8826 8.63214 9.75736 9.75736C8.63214 10.8826 8 12.4087 8 14V26C8 27.5913 8.63214 29.1174 9.75736 30.2426C10.8826 31.3679 12.4087 32 14 32H26C27.5913 32 29.1174 31.3679 30.2426 30.2426C31.3679 29.1174 32 27.5913 32 26V14C32 12.4087 31.3679 10.8826 30.2426 9.75736C29.1174 8.63214 27.5913 8 26 8H14ZM24.476 18.4208C24.5838 18.3058 24.6679 18.1706 24.7234 18.0231C24.779 17.8756 24.8049 17.7185 24.7998 17.561C24.7947 17.4034 24.7586 17.2484 24.6936 17.1048C24.6285 16.9612 24.5358 16.8318 24.4208 16.724C24.3058 16.6162 24.1706 16.5321 24.0231 16.4766C23.8756 16.421 23.7185 16.3951 23.561 16.4002C23.4034 16.4053 23.2484 16.4414 23.1048 16.5064C22.9612 16.5715 22.8318 16.6642 22.724 16.7792L19.0244 20.7272L17.1968 19.1036C16.9574 18.9045 16.6499 18.8064 16.3394 18.8298C16.0289 18.8532 15.7397 18.9964 15.5328 19.2291C15.3259 19.4619 15.2176 19.7659 15.2307 20.077C15.2439 20.3881 15.3774 20.6819 15.6032 20.8964L18.3032 23.2964C18.5368 23.5039 18.8422 23.6121 19.1544 23.598C19.4665 23.5839 19.7609 23.4486 19.9748 23.2208L24.4748 18.4208H24.476Z" fill="white"/>
</svg>
