<svg width="40" height="40" viewBox="0 0 40 40" fill="none" xmlns="http://www.w3.org/2000/svg">
<path d="M33.3619 13.085C33.5542 12.46 33.3619 12 32.4366 12H29.3751C28.5954 12 28.2367 12.395 28.0444 12.835C28.0444 12.835 26.485 16.49 24.2811 18.86C23.569 19.545 23.2415 19.765 22.8517 19.765C22.6593 19.765 22.3631 19.545 22.3631 18.92V13.085C22.3631 12.335 22.1447 12 21.5002 12H16.6869C16.1983 12 15.9072 12.35 15.9072 12.675C15.9072 13.385 17.0092 13.55 17.1236 15.55V19.89C17.1236 20.84 16.9468 21.015 16.557 21.015C15.5174 21.015 12.9912 17.345 11.4942 13.145C11.1927 12.33 10.8964 12 10.1116 12H7.04998C6.17673 12 6 12.395 6 12.835C6 13.615 7.03958 17.49 10.8393 22.61C13.3707 26.105 16.9364 28 20.1799 28C22.1292 28 22.3683 27.58 22.3683 26.855C22.3683 23.515 22.1915 23.2 23.1687 23.2C23.621 23.2 24.4006 23.42 26.2199 25.105C28.2991 27.105 28.6422 28 29.8065 28H32.8681C33.7413 28 34.1831 27.58 33.9284 26.75C33.3463 25.005 29.4114 21.415 29.2347 21.175C28.7825 20.615 28.9124 20.365 29.2347 19.865C29.2399 19.86 32.9772 14.8 33.3619 13.085Z" fill="white"/>
</svg>
