<svg width="40" height="40" viewBox="0 0 40 40" fill="none" xmlns="http://www.w3.org/2000/svg">
<path d="M10 15C10 13.8954 10.8954 13 12 13H28C29.1046 13 30 13.8954 30 15C30 16.1046 29.1046 17 28 17H12C10.8954 17 10 16.1046 10 15Z" fill="white"/>
<path d="M8 20C8 18.8954 8.89543 18 10 18H30C31.1046 18 32 18.8954 32 20C32 21.1046 31.1046 22 30 22H10C8.89543 22 8 21.1046 8 20Z" fill="white"/>
<path d="M12 25C12 23.8954 12.8954 23 14 23H26C27.1046 23 28 23.8954 28 25C28 26.1046 27.1046 27 26 27H14C12.8954 27 12 26.1046 12 25Z" fill="white"/>
</svg>
