<svg width="40" height="40" viewBox="0 0 40 40" fill="none" xmlns="http://www.w3.org/2000/svg">
<path fill-rule="evenodd" clip-rule="evenodd" d="M10.4 17.798L8.0396 15.8648C8.1369 15.2188 8.40791 14.6114 8.82366 14.1075C9.23941 13.6037 9.78427 13.2222 10.4 13.004V17.7968V17.798ZM11.6 18.782L18.4784 24.4172C18.9075 24.769 19.4452 24.9612 20 24.9612C20.5548 24.9612 21.0925 24.769 21.5216 24.4172L28.4 18.782V11.6C28.4 10.6452 28.0207 9.72955 27.3456 9.05442C26.6705 8.37928 25.7548 8 24.8 8H15.2C14.2452 8 13.3295 8.37928 12.6544 9.05442C11.9793 9.72955 11.6 10.6452 11.6 11.6V18.782ZM31.9604 15.8648L29.6 17.798V13.0052C30.2156 13.2233 30.7603 13.6046 31.1761 14.1082C31.5918 14.6119 31.8629 15.219 31.9604 15.8648ZM21.5192 27.4952L32 18.932V28.4C32 29.3548 31.6207 30.2705 30.9456 30.9456C30.2705 31.6207 29.3548 32 28.4 32H11.6C10.6452 32 9.72955 31.6207 9.05442 30.9456C8.37928 30.2705 8 29.3548 8 28.4V18.9308L18.4808 27.4952C18.9095 27.8457 19.4462 28.0372 20 28.0372C20.5538 28.0372 21.0905 27.8457 21.5192 27.4952ZM17.6 16.4C17.2817 16.4 16.9765 16.5264 16.7515 16.7515C16.5264 16.9765 16.4 17.2817 16.4 17.6C16.4 17.9183 16.5264 18.2235 16.7515 18.4485C16.9765 18.6736 17.2817 18.8 17.6 18.8H22.4C22.7183 18.8 23.0235 18.6736 23.2485 18.4485C23.4736 18.2235 23.6 17.9183 23.6 17.6C23.6 17.2817 23.4736 16.9765 23.2485 16.7515C23.0235 16.5264 22.7183 16.4 22.4 16.4H17.6ZM17.6 11.6C17.2817 11.6 16.9765 11.7264 16.7515 11.9515C16.5264 12.1765 16.4 12.4817 16.4 12.8C16.4 13.1183 16.5264 13.4235 16.7515 13.6485C16.9765 13.8736 17.2817 14 17.6 14H22.4C22.7183 14 23.0235 13.8736 23.2485 13.6485C23.4736 13.4235 23.6 13.1183 23.6 12.8C23.6 12.4817 23.4736 12.1765 23.2485 11.9515C23.0235 11.7264 22.7183 11.6 22.4 11.6H17.6Z" fill="white"/>
</svg>
