<svg width="40" height="40" viewBox="0 0 40 40" fill="none" xmlns="http://www.w3.org/2000/svg">
<path d="M8.58183 14.9387L19.5008 19.8919C19.8195 20.0367 20.18 20.0367 20.4987 19.8919L31.4177 14.9387C32.1935 14.5867 32.1935 13.4143 31.4177 13.0623L20.4992 8.10863C20.3426 8.03705 20.1724 8 20.0002 8C19.828 8 19.6579 8.03705 19.5013 8.10863L8.58183 13.0618C7.80606 13.4139 7.80606 14.5867 8.58183 14.9387ZM31.4182 19.0768L28.6952 17.8426L21.1184 21.277C20.7641 21.4378 20.3877 21.5194 20 21.5194C19.6123 21.5194 19.2364 21.4378 18.8816 21.277L11.3052 17.8426L8.58183 19.0768C7.80606 19.4283 7.80606 20.6002 8.58183 20.9517L19.5008 25.9012C19.8195 26.0456 20.18 26.0456 20.4987 25.9012L31.4182 20.9517C32.1939 20.6002 32.1939 19.4283 31.4182 19.0768ZM31.4182 25.0673L28.7055 23.8378L21.1184 27.2769C20.7641 27.4377 20.3877 27.5193 20 27.5193C19.6123 27.5193 19.2364 27.4377 18.8816 27.2769L11.2949 23.8378L8.58183 25.0673C7.80606 25.4188 7.80606 26.5907 8.58183 26.9423L19.5008 31.8917C19.8195 32.0361 20.18 32.0361 20.4987 31.8917L31.4182 26.9423C32.1939 26.5907 32.1939 25.4188 31.4182 25.0673Z" fill="white"/>
</svg>
