<svg width="40" height="40" viewBox="0 0 40 40" fill="none" xmlns="http://www.w3.org/2000/svg">
<path d="M15.7143 8C14.7263 7.9998 13.7686 8.34027 13.0032 8.9638C12.2379 9.58733 11.7119 10.4556 11.5143 11.4217H23.4286C24.7925 11.4217 26.1006 11.9625 27.0651 12.925C28.0296 13.8875 28.5714 15.193 28.5714 16.5543V25.023C29.5395 24.8258 30.4095 24.3008 31.0343 23.537C31.659 22.7732 32.0002 21.8174 32 20.8314V13.1326C32 11.7713 31.4582 10.4658 30.4937 9.50329C29.5292 8.54075 28.2211 8 26.8571 8H15.7143Z" fill="white"/>
<path d="M26.8571 16.5543C26.8571 15.6468 26.4959 14.7764 25.8529 14.1348C25.21 13.4931 24.3379 13.1326 23.4286 13.1326H11.4286C10.5193 13.1326 9.64719 13.4931 9.00421 14.1348C8.36122 14.7764 8 15.6468 8 16.5543V25.1085C8 26.016 8.36122 26.8863 9.00421 27.528C9.64719 28.1697 10.5193 28.5302 11.4286 28.5302V30.289C11.4285 30.6033 11.5153 30.9116 11.6793 31.1799C11.8432 31.4483 12.0781 31.6663 12.3581 31.8102C12.6382 31.9541 12.9525 32.0182 13.2666 31.9955C13.5807 31.9728 13.8825 31.8642 14.1389 31.6816L18.5617 28.5302H23.4286C24.3379 28.5302 25.21 28.1697 25.8529 27.528C26.4959 26.8863 26.8571 26.016 26.8571 25.1085V22.6158L26.96 22.5422H26.8571V16.5543Z" fill="white"/>
</svg>
