<svg width="40" height="40" viewBox="0 0 40 40" fill="none" xmlns="http://www.w3.org/2000/svg">
<path d="M23.8534 24.4085C29.4578 19.495 33.8001 13.0398 31.2538 10.2085C30.4462 9.31096 29.3185 8.89477 28.1077 9.02264C27.0912 9.13242 26.0465 9.62823 24.9933 10.4606C23.3378 9.61375 21.4898 9.20034 19.6262 9.2599C17.7627 9.31946 15.9457 9.85001 14.349 10.8008C13.1078 11.5264 12.0249 12.4881 11.1631 13.6302C10.3013 14.7723 9.67775 16.072 9.32866 17.4539C8.78459 19.5825 8.91509 21.8246 9.70253 23.8777C8.40132 25.3289 7.19296 28.3134 8.69699 29.9855C9.32866 30.6863 10.2328 31 11.3202 31C14.6276 31 19.6382 28.106 23.8534 24.4085ZM28.3728 11.4197C28.8102 11.3787 29.145 11.4969 29.4248 11.8093C29.707 12.1242 29.6313 12.9505 29.1169 14.1364C28.5643 13.306 27.8997 12.554 27.1413 11.901C27.6679 11.5849 28.0894 11.451 28.3728 11.4197ZM10.9854 26.2614C11.5287 27.0394 12.1728 27.7439 12.9012 28.3569C11.6489 28.7224 10.807 28.6983 10.5248 28.3822C10.2597 28.0891 10.5272 27.0926 10.9854 26.2614ZM30.913 19.1813C29.4285 21.3492 27.3624 23.6099 25.0752 25.6148C22.7122 27.6886 20.1074 29.4848 17.6833 30.6839C18.4355 30.8474 19.2028 30.9331 19.973 30.9397C21.96 30.9376 23.9092 30.4031 25.6128 29.3931C27.3825 28.3587 28.8195 26.8506 29.7575 25.0435C30.6954 23.2363 31.096 21.2039 30.913 19.1813Z" fill="white"/>
</svg>
