<svg width="20" height="20" viewBox="0 0 20 20" fill="none" xmlns="http://www.w3.org/2000/svg">
<g clip-path="url(#clip0)">
<path d="M20 10C20 15.5228 15.5228 20 10 20C4.47715 20 0 15.5228 0 10C0 4.47715 4.47715 0 10 0C15.5228 0 20 4.47715 20 10Z" fill="#212121"/>
<path fill-rule="evenodd" clip-rule="evenodd" d="M18.8035 12.6803C17.656 16.4539 14.1487 19.2 10 19.2C5.85125 19.2 2.3439 16.4539 1.1965 12.6802C0.462055 12.0211 4.10378e-05 11.0645 4.10378e-05 10C4.10378e-05 8.93551 0.462057 7.97893 1.1965 7.31984C2.3439 3.54613 5.85125 0.8 10 0.8C14.1487 0.8 17.656 3.54609 18.8035 7.31975C19.5329 7.9743 19.9937 8.9223 20 9.97804C19.9881 4.46529 15.5155 0 10 0C4.47715 0 0 4.47715 0 10C0 15.5228 4.47715 20 10 20C15.5155 20 19.9881 15.5347 20 10.022C19.9937 11.0777 19.5329 12.0257 18.8035 12.6803Z" fill="white"/>
<path d="M0.800049 9.17647C0.800049 8.52672 1.33498 8 1.99485 8H18.0052C18.6651 8 19.2001 8.52672 19.2001 9.17647H0.800049Z" fill="white"/>
<path d="M2.33338 10.5882C2.33338 9.93849 2.86832 9.41176 3.52819 9.41176H10.0001C10.0001 10.0615 9.46512 10.5882 8.80525 10.5882H2.33338Z" fill="white"/>
<path d="M0.800049 10.8235H19.2001C19.2001 11.4733 18.6651 12 18.0052 12H1.99485C1.33498 12 0.800049 11.4733 0.800049 10.8235Z" fill="white"/>
</g>
<defs>
<clipPath id="clip0">
<rect width="20" height="20" fill="white"/>
</clipPath>
</defs>
</svg>
